# xmcd
#
# Track frame offsets:
#	150
#	19100
#	32090
#	48813
#	58510
#	75813
#	85503
#	99820
#	106729
#	124819
#	133401
#	149095
#
# Disc length: 2217 seconds
#
# Revision: 0
# Processed by: cddbd v1.5.2PL0 Copyright (c) Steve Scherf et al.
# Submitted via: EasyCDDAExtractor 8.2.3.1
#
DISCID=8e08a70c
DTITLE=The Hooker Family - The Value Of One
DYEAR=2002
DGENRE=gospel
TTITLE0=The Value Of One
TTITLE1=One Thing I Know
TTITLE2=Let Me Be There
TTITLE3=If The Lord Wasn't Walking By My Side
TTITLE4=Hold On
TTITLE5=Down By the Riverside Medley
TTITLE6=When I Survey The Wondrous Cross Medley
TTITLE7=This Little Light Of Mine
TTITLE8=The Altar
TTITLE9=No Not One
TTITLE10=Surely The Presence
TTITLE11=The Judgement
EXTD=
EXTT0=
EXTT1=
EXTT2=
EXTT3=
EXTT4=
EXTT5=
EXTT6=
EXTT7=
EXTT8=
EXTT9=
EXTT10=
EXTT11=
PLAYORDER=
